<?xml version="1.0"?>
<svg xmlns="http://www.w3.org/2000/svg" height="512px" viewBox="-14 0 511 512" width="512px"><g><path d="m423.226562 296.441406h-63.980468c-4.375 0-8.363282 2.222656-10.675782 5.949219-2.277343 3.675781-2.496093 8.175781-.582031 12.03125 1.695313 3.417969 2.554688 7.082031 2.554688 10.890625 0 14.210938-12.277344 25.773438-27.367188 25.773438-15.085937 0-27.359375-11.5625-27.359375-25.773438 0-3.816406.859375-7.476562 2.550782-10.890625 1.914062-3.855469 1.695312-8.355469-.585938-12.03125-2.308594-3.726563-6.296875-5.949219-10.671875-5.949219h-61.503906v-133.773437c0-4.136719-3.355469-7.488281-7.492188-7.488281s-7.492187 3.351562-7.492187 7.488281v133.769531h-57.757813c1.664063-4.417969 2.535157-9.117188 2.535157-13.882812 0-22.480469-18.996094-40.765626-42.347657-40.765626-23.351562 0-42.347656 18.285157-42.347656 40.765626 0 4.765624.871094 9.464843 2.535156 13.882812h-57.757812v-177.203125c0-4.625 4.105469-8.390625 9.152343-8.390625h185.988282v17.203125c0 4.136719 3.355468 7.488281 7.492187 7.488281s7.492188-3.351562 7.492188-7.488281v-19.675781c0-6.898438-5.613281-12.511719-12.507813-12.511719h-188.464844c-13.308593 0-24.132812 10.488281-24.132812 23.375v369.390625c0 12.890625 10.824219 23.375 24.132812 23.375h193.480469c.015625 0 .027344-.003906.039063-.003906h108.359375c4.136719 0 7.492187-3.351563 7.492187-7.488282 0-4.136718-3.355468-7.492187-7.492187-7.492187h-100.902344v-185.59375h57.742187c-1.671874 4.433594-2.515624 9.089844-2.515624 13.890625 0 22.472656 18.992187 40.753906 42.339843 40.753906 23.351563 0 42.351563-18.28125 42.351563-40.753906 0-4.800781-.847656-9.457031-2.523438-13.890625h57.75v177.199219c0 4.628906-4.105468 8.394531-9.152344 8.394531h-50.796874c-4.136719 0-7.492188 3.355469-7.492188 7.492187 0 4.136719 3.355469 7.488282 7.492188 7.488282h50.796874c13.304688 0 24.132813-10.484375 24.132813-23.375v-179.671875c0-6.898438-5.613281-12.507813-12.507813-12.507813zm-212.605468 200.578125h-185.988282c-5.046874 0-9.152343-3.765625-9.152343-8.394531v-177.203125h70.867187c2.945313 0 5.613282-1.722656 6.828125-4.402344 1.210938-2.683593.742188-5.824219-1.203125-8.035156-4.050781-4.609375-6.285156-10.445313-6.285156-16.429687 0-14.214844 12.277344-25.78125 27.363281-25.78125 15.089844 0 27.367188 11.566406 27.367188 25.78125 0 5.984374-2.234375 11.820312-6.285157 16.429687-1.945312 2.210937-2.414062 5.351563-1.203124 8.035156 1.214843 2.679688 3.882812 4.402344 6.828124 4.402344h70.863282zm0 0" data-original="#000000" class="active-path" data-old_color="#000000" fill="#C8C8C8"/><path d="m458.59375 0h-193.484375c-4.136719 0-7.492187 3.355469-7.492187 7.492188v195.558593c0 6.898438 5.613281 12.507813 12.511718 12.507813h60.230469c-1.664063 4.421875-2.535156 9.121094-2.535156 13.886718 0 22.480469 18.996093 40.765626 42.347656 40.765626 23.347656 0 42.347656-18.285157 42.347656-40.765626 0-4.765624-.875-9.464843-2.539062-13.886718h60.234375c6.898437 0 12.507812-5.609375 12.507812-12.507813v-179.675781c0-12.890625-10.824218-23.375-24.128906-23.375zm9.148438 200.578125h-70.867188c-2.941406 0-5.613281 1.722656-6.824219 4.402344-1.214843 2.683593-.742187 5.824219 1.199219 8.035156 4.054688 4.609375 6.285156 10.445313 6.285156 16.429687 0 14.214844-12.273437 25.78125-27.363281 25.78125s-27.363281-11.566406-27.363281-25.78125c0-5.984374 2.230468-11.820312 6.285156-16.429687 1.941406-2.210937 2.414062-5.351563 1.199219-8.035156-1.210938-2.679688-3.882813-4.402344-6.824219-4.402344h-70.867188v-185.597656h185.992188c5.042969 0 9.148438 3.765625 9.148438 8.394531zm0 0" data-original="#000000" class="active-path" data-old_color="#000000" fill="#C8C8C8"/></g> </svg>
